{"title":"Revolution Z - Season 1 - Episode 4 - SatRip","uid":7829331,"size":512178116,"categoryP":"video","categoryS":"tv_shows","magnet":"?xt=urn:btih:4cd8fa94ac529be5657859d37b112ac588a8389c&amp;dn=Revolution+Z+-+Season+1+-+Episode+4+-+SatRip&amp;tr=udp%3A%2F%2Ftracker.openbittorrent.com%3A80&amp;tr=udp%3A%2F%2Fopen.demonii.com%3A1337&amp;tr=udp%3A%2F%2Ftracker.coppersurfer.tk%3A6969&amp;tr=udp%3A%2F%2Fexodus.desync.com%3A6969","seeders":1,"leechers":0,"uploader":null,"files":1,"time":1353014101,"description":"Input #0, mov,mp4,m4a,3gp,3g2,mj2, from 'Revolution Z - Season 1 - Episode 4.mp4':\n  Metadata:\n    major_brand     : mp42\n    minor_version   : 0\n    compatible_brands: mp42isomavc1\n    creation_time   : 2012-11-15 20:06:40\n    encoder         : HandBrake 5044svn 2012110601\n  Duration: 00:47:27.46, start: 0.000000, bitrate: 1438 kb/s\n    Stream #0:0(und): Video: h264 (Main) (avc1 / 0x31637661), yuv420p, 720x576 [SAR 16:11 DAR 20:11], 1338 kb/s, 25 fps, 25 tbr, 90k tbn, 180k tbc\n    Metadata:\n      creation_time   : 2012-11-15 20:06:40\n    Stream #0:1(und): Audio: aac (mp4a / 0x6134706D), 48000 Hz, stereo, s16, 96 kb/s\n    Metadata:\n      creation_time   : 2012-11-15 20:06:40","torrent":{"xt":"urn:btih:4cd8fa94ac529be5657859d37b112ac588a8389c","amp;dn":"Revolution+Z+-+Season+1+-+Episode+4+-+SatRip","amp;tr":["udp%3A%2F%2Ftracker.openbittorrent.com%3A80","udp%3A%2F%2Fopen.demonii.com%3A1337","udp%3A%2F%2Ftracker.coppersurfer.tk%3A6969","udp%3A%2F%2Fexodus.desync.com%3A6969"],"infoHash":"4cd8fa94ac529be5657859d37b112ac588a8389c","infoHashBuffer":{"type":"Buffer","data":[76,216,250,148,172,82,155,229,101,120,89,211,123,17,42,197,136,168,56,156]},"announce":[],"urlList":[]}}